<svg xmlns="http://www.w3.org/2000/svg" xmlns:xlink="http://www.w3.org/1999/xlink" width="500" zoomAndPan="magnify" viewBox="0 0 375 374.999991" height="500" preserveAspectRatio="xMidYMid meet" version="1.0"><defs><clipPath id="c602f26a9f"><path d="M 0 116.867188 L 112 116.867188 L 112 229.367188 L 0 229.367188 Z M 0 116.867188 " clip-rule="nonzero"/></clipPath><clipPath id="759bcc8a37"><path d="M 44.902344 116.867188 C 8.199219 116.867188 -21.558594 142.050781 -21.558594 173.117188 C -21.558594 204.183594 8.199219 229.367188 44.902344 229.367188 C 81.609375 229.367188 111.367188 204.183594 111.367188 173.117188 C 111.367188 142.050781 81.609375 116.867188 44.902344 116.867188 " clip-rule="nonzero"/></clipPath><clipPath id="61b22ba91a"><path d="M 245.058594 180.011719 L 375 180.011719 L 375 292.511719 L 245.058594 292.511719 Z M 245.058594 180.011719 " clip-rule="nonzero"/></clipPath><clipPath id="e626efe11c"><path d="M 312.1875 292.511719 C 348.894531 292.511719 378.652344 267.328125 378.652344 236.261719 C 378.652344 205.195312 348.894531 180.011719 312.1875 180.011719 C 275.484375 180.011719 245.726562 205.195312 245.726562 236.261719 C 245.726562 267.328125 275.484375 292.511719 312.1875 292.511719 " clip-rule="nonzero"/></clipPath><clipPath id="f0e4cd59ed"><path d="M 0 0 L 111.367188 0 L 111.367188 176 L 0 176 Z M 0 0 " clip-rule="nonzero"/></clipPath><clipPath id="cadfb50af1"><path d="M 245.738281 236.261719 L 375 236.261719 L 375 375 L 245.738281 375 Z M 245.738281 236.261719 " clip-rule="nonzero"/></clipPath><clipPath id="03845e55c2"><path d="M 75 78.289062 L 187.5 78.289062 L 187.5 268 L 75 268 Z M 75 78.289062 " clip-rule="nonzero"/></clipPath><clipPath id="59c2431434"><path d="M 92.25 78.289062 L 170.25 78.289062 C 174.824219 78.289062 179.210938 80.109375 182.449219 83.34375 C 185.683594 86.578125 187.5 90.964844 187.5 95.539062 L 187.5 250.695312 C 187.5 255.269531 185.683594 259.660156 182.449219 262.894531 C 179.210938 266.128906 174.824219 267.945312 170.25 267.945312 L 92.25 267.945312 C 87.675781 267.945312 83.289062 266.128906 80.050781 262.894531 C 76.816406 259.660156 75 255.269531 75 250.695312 L 75 95.539062 C 75 90.964844 76.816406 86.578125 80.050781 83.34375 C 83.289062 80.109375 87.675781 78.289062 92.25 78.289062 " clip-rule="nonzero"/></clipPath><clipPath id="521c1b6d94"><path d="M 84.929688 83.226562 L 178 83.226562 L 178 117 L 84.929688 117 Z M 84.929688 83.226562 " clip-rule="nonzero"/></clipPath><clipPath id="7d35b8866e"><path d="M 101.75 83.226562 L 160.75 83.226562 C 165.210938 83.226562 169.492188 85 172.644531 88.152344 C 175.800781 91.308594 177.570312 95.585938 177.570312 100.046875 C 177.570312 104.507812 175.800781 108.785156 172.644531 111.941406 C 169.492188 115.097656 165.210938 116.867188 160.75 116.867188 L 101.75 116.867188 C 97.289062 116.867188 93.007812 115.097656 89.855469 111.941406 C 86.699219 108.785156 84.929688 104.507812 84.929688 100.046875 C 84.929688 95.585938 86.699219 91.308594 89.855469 88.152344 C 93.007812 85 97.289062 83.226562 101.75 83.226562 " clip-rule="nonzero"/></clipPath><clipPath id="91431155ee"><path d="M 84.929688 245.253906 L 178 245.253906 L 178 263 L 84.929688 263 Z M 84.929688 245.253906 " clip-rule="nonzero"/></clipPath><clipPath id="7340b4dba6"><path d="M 93.808594 245.253906 L 168.691406 245.253906 C 173.597656 245.253906 177.570312 249.226562 177.570312 254.132812 C 177.570312 259.035156 173.597656 263.011719 168.691406 263.011719 L 93.808594 263.011719 C 88.902344 263.011719 84.929688 259.035156 84.929688 254.132812 C 84.929688 249.226562 88.902344 245.253906 93.808594 245.253906 " clip-rule="nonzero"/></clipPath><clipPath id="4ab8e0362c"><path d="M 157.714844 247.238281 L 171.5 247.238281 L 171.5 261.023438 L 157.714844 261.023438 Z M 157.714844 247.238281 " clip-rule="nonzero"/></clipPath><clipPath id="925cc76286"><path d="M 164.609375 247.238281 C 160.800781 247.238281 157.714844 250.324219 157.714844 254.132812 C 157.714844 257.9375 160.800781 261.023438 164.609375 261.023438 C 168.414062 261.023438 171.5 257.9375 171.5 254.132812 C 171.5 250.324219 168.414062 247.238281 164.609375 247.238281 " clip-rule="nonzero"/></clipPath><clipPath id="1707f194d4"><path d="M 79.992188 125.945312 L 137 125.945312 L 137 141 L 79.992188 141 Z M 79.992188 125.945312 " clip-rule="nonzero"/></clipPath><clipPath id="f46065a98a"><path d="M 87.453125 125.945312 L 128.867188 125.945312 C 130.847656 125.945312 132.742188 126.730469 134.140625 128.128906 C 135.542969 129.53125 136.328125 131.425781 136.328125 133.40625 C 136.328125 135.382812 135.542969 137.28125 134.140625 138.679688 C 132.742188 140.082031 130.847656 140.867188 128.867188 140.867188 L 87.453125 140.867188 C 85.472656 140.867188 83.578125 140.082031 82.175781 138.679688 C 80.777344 137.28125 79.992188 135.382812 79.992188 133.40625 C 79.992188 131.425781 80.777344 129.53125 82.175781 128.128906 C 83.578125 126.730469 85.472656 125.945312 87.453125 125.945312 " clip-rule="nonzero"/></clipPath><clipPath id="6a7fc9b569"><path d="M 79.992188 145.320312 L 137 145.320312 L 137 160 L 79.992188 160 Z M 79.992188 145.320312 " clip-rule="nonzero"/></clipPath><clipPath id="bd7deb48b5"><path d="M 87.453125 145.320312 L 128.867188 145.320312 C 130.847656 145.320312 132.742188 146.105469 134.140625 147.503906 C 135.542969 148.90625 136.328125 150.800781 136.328125 152.78125 C 136.328125 154.757812 135.542969 156.65625 134.140625 158.054688 C 132.742188 159.457031 130.847656 160.242188 128.867188 160.242188 L 87.453125 160.242188 C 85.472656 160.242188 83.578125 159.457031 82.175781 158.054688 C 80.777344 156.65625 79.992188 154.757812 79.992188 152.78125 C 79.992188 150.800781 80.777344 148.90625 82.175781 147.503906 C 83.578125 146.105469 85.472656 145.320312 87.453125 145.320312 " clip-rule="nonzero"/></clipPath><clipPath id="544d97dfc9"><path d="M 121.238281 168.539062 L 178 168.539062 L 178 183 L 121.238281 183 Z M 121.238281 168.539062 " clip-rule="nonzero"/></clipPath><clipPath id="dd6451948f"><path d="M 128.695312 168.539062 L 170.113281 168.539062 C 172.089844 168.539062 173.988281 169.324219 175.386719 170.722656 C 176.785156 172.125 177.570312 174.019531 177.570312 176 C 177.570312 177.976562 176.785156 179.875 175.386719 181.273438 C 173.988281 182.675781 172.089844 183.460938 170.113281 183.460938 L 128.695312 183.460938 C 126.71875 183.460938 124.820312 182.675781 123.421875 181.273438 C 122.023438 179.875 121.238281 177.976562 121.238281 176 C 121.238281 174.019531 122.023438 172.125 123.421875 170.722656 C 124.820312 169.324219 126.71875 168.539062 128.695312 168.539062 " clip-rule="nonzero"/></clipPath><clipPath id="49f38f26b2"><path d="M 121.238281 187.960938 L 178 187.960938 L 178 203 L 121.238281 203 Z M 121.238281 187.960938 " clip-rule="nonzero"/></clipPath><clipPath id="b11112a9a1"><path d="M 128.695312 187.960938 L 170.113281 187.960938 C 172.089844 187.960938 173.988281 188.746094 175.386719 190.144531 C 176.785156 191.542969 177.570312 193.441406 177.570312 195.421875 C 177.570312 197.398438 176.785156 199.296875 175.386719 200.695312 C 173.988281 202.09375 172.089844 202.878906 170.113281 202.878906 L 128.695312 202.878906 C 126.71875 202.878906 124.820312 202.09375 123.421875 200.695312 C 122.023438 199.296875 121.238281 197.398438 121.238281 195.421875 C 121.238281 193.441406 122.023438 191.542969 123.421875 190.144531 C 124.820312 188.746094 126.71875 187.960938 128.695312 187.960938 " clip-rule="nonzero"/></clipPath><clipPath id="62693dd3f4"><path d="M 79.992188 211.878906 L 137 211.878906 L 137 226 L 79.992188 226 Z M 79.992188 211.878906 " clip-rule="nonzero"/></clipPath><clipPath id="f9612597e8"><path d="M 87.453125 211.878906 L 128.867188 211.878906 C 130.847656 211.878906 132.742188 212.667969 134.140625 214.066406 C 135.542969 215.464844 136.328125 217.363281 136.328125 219.339844 C 136.328125 221.320312 135.542969 223.21875 134.140625 224.617188 C 132.742188 226.015625 130.847656 226.800781 128.867188 226.800781 L 87.453125 226.800781 C 85.472656 226.800781 83.578125 226.015625 82.175781 224.617188 C 80.777344 223.21875 79.992188 221.320312 79.992188 219.339844 C 79.992188 217.363281 80.777344 215.464844 82.175781 214.066406 C 83.578125 212.667969 85.472656 211.878906 87.453125 211.878906 " clip-rule="nonzero"/></clipPath></defs><g clip-path="url(#c602f26a9f)"><g clip-path="url(#759bcc8a37)"><path fill="#9239ff" d="M -21.558594 116.867188 L 112.035156 116.867188 L 112.035156 229.367188 L -21.558594 229.367188 Z M -21.558594 116.867188 " fill-opacity="1" fill-rule="nonzero"/></g></g><g clip-path="url(#61b22ba91a)"><g clip-path="url(#e626efe11c)"><path fill="#fdf6ff" d="M 378.652344 292.511719 L 245.058594 292.511719 L 245.058594 180.011719 L 378.652344 180.011719 Z M 378.652344 292.511719 " fill-opacity="1" fill-rule="nonzero"/></g></g><g clip-path="url(#f0e4cd59ed)"><path fill="#9239ff" d="M -1.132812 0 L 111.367188 0 L 111.367188 175.78125 L -1.132812 175.78125 Z M -1.132812 0 " fill-opacity="1" fill-rule="nonzero"/></g><g clip-path="url(#cadfb50af1)"><path fill="#fdf6ff" d="M 245.738281 236.261719 L 375.816406 236.261719 L 375.816406 415.558594 L 245.738281 415.558594 Z M 245.738281 236.261719 " fill-opacity="1" fill-rule="nonzero"/></g><g clip-path="url(#03845e55c2)"><g clip-path="url(#59c2431434)"><path fill="#f5f3f7" d="M 75 78.289062 L 187.5 78.289062 L 187.5 268.132812 L 75 268.132812 Z M 75 78.289062 " fill-opacity="1" fill-rule="nonzero"/></g></g><g clip-path="url(#521c1b6d94)"><g clip-path="url(#7d35b8866e)"><path fill="#dc41ff" d="M 84.929688 83.226562 L 178.09375 83.226562 L 178.09375 116.625 L 84.929688 116.625 Z M 84.929688 83.226562 " fill-opacity="1" fill-rule="nonzero"/></g></g><g clip-path="url(#91431155ee)"><g clip-path="url(#7340b4dba6)"><path fill="#ffffff" d="M 84.929688 245.253906 L 178.09375 245.253906 L 178.09375 262.832031 L 84.929688 262.832031 Z M 84.929688 245.253906 " fill-opacity="1" fill-rule="nonzero"/></g></g><g clip-path="url(#4ab8e0362c)"><g clip-path="url(#925cc76286)"><path fill="#3e2753" d="M 157.714844 247.238281 L 171.5 247.238281 L 171.5 261.023438 L 157.714844 261.023438 Z M 157.714844 247.238281 " fill-opacity="1" fill-rule="nonzero"/></g></g><g clip-path="url(#1707f194d4)"><g clip-path="url(#f46065a98a)"><path fill="#eee5f5" d="M 79.992188 125.945312 L 136.242188 125.945312 L 136.242188 140.007812 L 79.992188 140.007812 Z M 79.992188 125.945312 " fill-opacity="1" fill-rule="nonzero"/></g></g><g clip-path="url(#6a7fc9b569)"><g clip-path="url(#bd7deb48b5)"><path fill="#eee5f5" d="M 79.992188 145.320312 L 136.242188 145.320312 L 136.242188 159.382812 L 79.992188 159.382812 Z M 79.992188 145.320312 " fill-opacity="1" fill-rule="nonzero"/></g></g><g clip-path="url(#544d97dfc9)"><g clip-path="url(#dd6451948f)"><path fill="#ffffff" d="M 121.238281 168.539062 L 177.488281 168.539062 L 177.488281 182.601562 L 121.238281 182.601562 Z M 121.238281 168.539062 " fill-opacity="1" fill-rule="nonzero"/></g></g><g clip-path="url(#49f38f26b2)"><g clip-path="url(#b11112a9a1)"><path fill="#ffffff" d="M 121.238281 187.960938 L 177.488281 187.960938 L 177.488281 202.023438 L 121.238281 202.023438 Z M 121.238281 187.960938 " fill-opacity="1" fill-rule="nonzero"/></g></g><g clip-path="url(#62693dd3f4)"><g clip-path="url(#f9612597e8)"><path fill="#502050" d="M 79.992188 211.878906 L 136.242188 211.878906 L 136.242188 225.941406 L 79.992188 225.941406 Z M 79.992188 211.878906 " fill-opacity="1" fill-rule="nonzero"/></g></g><path stroke-linecap="butt" transform="matrix(0.75, 0, 0, 0.75, 199.130089, 114.051057)" fill="none" stroke-linejoin="miter" d="M -0.00157703 4.999632 L 159.998433 4.999632 " stroke="#3e2753" stroke-width="10" stroke-opacity="1" stroke-miterlimit="4"/><path stroke-linecap="butt" transform="matrix(0.75, 0, 0, 0.75, 196.860798, 128.782141)" fill="none" stroke-linejoin="miter" d="M -0.0018973 1.998812 L 159.998113 1.998812 " stroke="#a6a6a6" stroke-width="4" stroke-opacity="1" stroke-miterlimit="4"/><path stroke-linecap="butt" transform="matrix(0.75, 0, 0, 0.75, 196.860798, 140.866104)" fill="none" stroke-linejoin="miter" d="M -0.0018973 2.001444 L 159.998113 2.001444 " stroke="#a6a6a6" stroke-width="4" stroke-opacity="1" stroke-miterlimit="4"/><path stroke-linecap="butt" transform="matrix(0.75, 0, 0, 0.75, 196.860798, 152.781012)" fill="none" stroke-linejoin="miter" d="M -0.0018973 2.000318 L 159.998113 2.000318 " stroke="#a6a6a6" stroke-width="4" stroke-opacity="1" stroke-miterlimit="4"/></svg>