<svg xmlns="http://www.w3.org/2000/svg" xmlns:xlink="http://www.w3.org/1999/xlink" width="500" zoomAndPan="magnify" viewBox="0 0 375 374.999991" height="500" preserveAspectRatio="xMidYMid meet" version="1.0"><defs><clipPath id="afb54e49d5"><path d="M 0 37.5 L 124 37.5 L 124 334 L 0 334 Z M 0 37.5 " clip-rule="nonzero"/></clipPath><clipPath id="026527492c"><path d="M 17.25 37.5 L 106.714844 37.5 C 111.289062 37.5 115.675781 39.316406 118.910156 42.550781 C 122.148438 45.789062 123.964844 50.175781 123.964844 54.75 L 123.964844 316.484375 C 123.964844 321.058594 122.148438 325.445312 118.910156 328.679688 C 115.675781 331.914062 111.289062 333.734375 106.714844 333.734375 L 17.25 333.734375 C 12.675781 333.734375 8.289062 331.914062 5.050781 328.679688 C 1.816406 325.445312 0 321.058594 0 316.484375 L 0 54.75 C 0 50.175781 1.816406 45.789062 5.050781 42.550781 C 8.289062 39.316406 12.675781 37.5 17.25 37.5 " clip-rule="nonzero"/></clipPath><clipPath id="a1189f038e"><path d="M 125.871094 37.5 L 249 37.5 L 249 334 L 125.871094 334 Z M 125.871094 37.5 " clip-rule="nonzero"/></clipPath><clipPath id="0b01ca151f"><path d="M 143.121094 37.5 L 232.109375 37.5 C 236.683594 37.5 241.074219 39.316406 244.308594 42.550781 C 247.542969 45.789062 249.359375 50.175781 249.359375 54.75 L 249.359375 316.484375 C 249.359375 321.058594 247.542969 325.445312 244.308594 328.679688 C 241.074219 331.914062 236.683594 333.734375 232.109375 333.734375 L 143.121094 333.734375 C 138.546875 333.734375 134.160156 331.914062 130.925781 328.679688 C 127.691406 325.445312 125.871094 321.058594 125.871094 316.484375 L 125.871094 54.75 C 125.871094 50.175781 127.691406 45.789062 130.925781 42.550781 C 134.160156 39.316406 138.546875 37.5 143.121094 37.5 " clip-rule="nonzero"/></clipPath><clipPath id="b6df34b138"><path d="M 251.269531 37.5 L 375 37.5 L 375 334 L 251.269531 334 Z M 251.269531 37.5 " clip-rule="nonzero"/></clipPath><clipPath id="79b4ec01d1"><path d="M 268.519531 37.5 L 357.75 37.5 C 362.324219 37.5 366.710938 39.316406 369.949219 42.550781 C 373.183594 45.789062 375 50.175781 375 54.75 L 375 316.484375 C 375 321.058594 373.183594 325.445312 369.949219 328.679688 C 366.710938 331.914062 362.324219 333.734375 357.75 333.734375 L 268.519531 333.734375 C 263.941406 333.734375 259.554688 331.914062 256.320312 328.679688 C 253.085938 325.445312 251.269531 321.058594 251.269531 316.484375 L 251.269531 54.75 C 251.269531 50.175781 253.085938 45.789062 256.320312 42.550781 C 259.554688 39.316406 263.941406 37.5 268.519531 37.5 " clip-rule="nonzero"/></clipPath><clipPath id="476a9aef2b"><path d="M 6.582031 47.863281 L 54.894531 47.863281 L 54.894531 96.175781 L 6.582031 96.175781 Z M 6.582031 47.863281 " clip-rule="nonzero"/></clipPath><clipPath id="2f907fa380"><path d="M 30.738281 47.863281 C 17.398438 47.863281 6.582031 58.679688 6.582031 72.019531 C 6.582031 85.363281 17.398438 96.175781 30.738281 96.175781 C 44.078125 96.175781 54.894531 85.363281 54.894531 72.019531 C 54.894531 58.679688 44.078125 47.863281 30.738281 47.863281 " clip-rule="nonzero"/></clipPath><clipPath id="c9a4446aab"><path d="M 134.117188 47.863281 L 182.429688 47.863281 L 182.429688 96.175781 L 134.117188 96.175781 Z M 134.117188 47.863281 " clip-rule="nonzero"/></clipPath><clipPath id="73c12c384e"><path d="M 158.273438 47.863281 C 144.933594 47.863281 134.117188 58.679688 134.117188 72.019531 C 134.117188 85.363281 144.933594 96.175781 158.273438 96.175781 C 171.613281 96.175781 182.429688 85.363281 182.429688 72.019531 C 182.429688 58.679688 171.613281 47.863281 158.273438 47.863281 " clip-rule="nonzero"/></clipPath><clipPath id="4bdaa94f4a"><path d="M 261.929688 47.863281 L 310.246094 47.863281 L 310.246094 96.175781 L 261.929688 96.175781 Z M 261.929688 47.863281 " clip-rule="nonzero"/></clipPath><clipPath id="6b097f4bf7"><path d="M 286.085938 47.863281 C 272.746094 47.863281 261.929688 58.679688 261.929688 72.019531 C 261.929688 85.363281 272.746094 96.175781 286.085938 96.175781 C 299.429688 96.175781 310.246094 85.363281 310.246094 72.019531 C 310.246094 58.679688 299.429688 47.863281 286.085938 47.863281 " clip-rule="nonzero"/></clipPath></defs><g clip-path="url(#afb54e49d5)"><g clip-path="url(#026527492c)"><path fill="#e38826" d="M 0 37.5 L 124.804688 37.5 L 124.804688 334.570312 L 0 334.570312 Z M 0 37.5 " fill-opacity="1" fill-rule="nonzero"/></g></g><g clip-path="url(#a1189f038e)"><g clip-path="url(#0b01ca151f)"><path fill="#006970" d="M 125.871094 37.5 L 248.917969 37.5 L 248.917969 334.570312 L 125.871094 334.570312 Z M 125.871094 37.5 " fill-opacity="1" fill-rule="nonzero"/></g></g><g clip-path="url(#b6df34b138)"><g clip-path="url(#79b4ec01d1)"><path fill="#004241" d="M 251.269531 37.5 L 374.316406 37.5 L 374.316406 334.570312 L 251.269531 334.570312 Z M 251.269531 37.5 " fill-opacity="1" fill-rule="nonzero"/></g></g><g clip-path="url(#476a9aef2b)"><g clip-path="url(#2f907fa380)"><path fill="#b66d1e" d="M 6.582031 47.863281 L 54.894531 47.863281 L 54.894531 96.175781 L 6.582031 96.175781 Z M 6.582031 47.863281 " fill-opacity="1" fill-rule="nonzero"/></g></g><g clip-path="url(#c9a4446aab)"><g clip-path="url(#73c12c384e)"><path fill="#00545a" d="M 134.117188 47.863281 L 182.429688 47.863281 L 182.429688 96.175781 L 134.117188 96.175781 Z M 134.117188 47.863281 " fill-opacity="1" fill-rule="nonzero"/></g></g><g clip-path="url(#4bdaa94f4a)"><g clip-path="url(#6b097f4bf7)"><path fill="#003534" d="M 261.929688 47.863281 L 310.246094 47.863281 L 310.246094 96.175781 L 261.929688 96.175781 Z M 261.929688 47.863281 " fill-opacity="1" fill-rule="nonzero"/></g></g><path stroke-linecap="butt" transform="matrix(0.746723, -0.000000000000000237, 0.000000000000000238, 0.75, 6.581591, 105.728635)" fill="none" stroke-linejoin="miter" d="M 0.000590182 2.002445 L 89.401685 2.002445 " stroke="#ffffff" stroke-width="4" stroke-opacity="1" stroke-miterlimit="4"/><path stroke-linecap="butt" transform="matrix(0.746723, -0.000000000000000237, 0.000000000000000238, 0.75, 134.116637, 105.728635)" fill="none" stroke-linejoin="miter" d="M 0.000736829 2.002445 L 89.401832 2.002445 " stroke="#ffffff" stroke-width="4" stroke-opacity="1" stroke-miterlimit="4"/><path stroke-linecap="butt" transform="matrix(0.746723, -0.000000000000000237, 0.000000000000000238, 0.75, 261.930486, 107.228635)" fill="none" stroke-linejoin="miter" d="M -0.00107001 2.002445 L 89.400025 2.002445 " stroke="#ffffff" stroke-width="4" stroke-opacity="1" stroke-miterlimit="4"/><path stroke-linecap="butt" transform="matrix(0.748395, 0, 0, 0.75, 8.535006, 298.015322)" fill="none" stroke-linejoin="miter" d="M 0.000200951 14.000405 L 102.234618 14.000405 " stroke="#ffffff" stroke-width="28" stroke-opacity="1" stroke-miterlimit="4"/><path stroke-linecap="butt" transform="matrix(0.748395, 0, 0, 0.75, 134.116637, 298.015322)" fill="none" stroke-linejoin="miter" d="M 0.000735183 14.000405 L 102.229932 14.000405 " stroke="#ffffff" stroke-width="28" stroke-opacity="1" stroke-miterlimit="4"/><path stroke-linecap="butt" transform="matrix(0.748395, 0, 0, 0.75, 261.930486, 298.015322)" fill="none" stroke-linejoin="miter" d="M -0.00106762 14.000405 L 102.233349 14.000405 " stroke="#ffffff" stroke-width="28" stroke-opacity="1" stroke-miterlimit="4"/></svg>