<svg xmlns="http://www.w3.org/2000/svg" xmlns:xlink="http://www.w3.org/1999/xlink" width="500" zoomAndPan="magnify" viewBox="0 0 375 374.999991" height="500" preserveAspectRatio="xMidYMid meet" version="1.0"><defs><clipPath id="d70918f2f0"><path d="M 6.394531 0 L 118.894531 0 L 118.894531 375 L 6.394531 375 Z M 6.394531 0 " clip-rule="nonzero"/></clipPath><clipPath id="b2231cc93c"><path d="M 23.644531 0 L 101.644531 0 C 106.222656 0 110.609375 1.816406 113.84375 5.050781 C 117.078125 8.289062 118.894531 12.675781 118.894531 17.25 L 118.894531 357.75 C 118.894531 362.324219 117.078125 366.710938 113.84375 369.949219 C 110.609375 373.183594 106.222656 375 101.644531 375 L 23.644531 375 C 19.070312 375 14.683594 373.183594 11.449219 369.949219 C 8.214844 366.710938 6.394531 362.324219 6.394531 357.75 L 6.394531 17.25 C 6.394531 12.675781 8.214844 8.289062 11.449219 5.050781 C 14.683594 1.816406 19.070312 0 23.644531 0 " clip-rule="nonzero"/></clipPath><clipPath id="c4a363f025"><path d="M 124.484375 0 L 368.820312 0 L 368.820312 375 L 124.484375 375 Z M 124.484375 0 " clip-rule="nonzero"/></clipPath><clipPath id="c59a24c786"><path d="M 141.734375 0 L 351.355469 0 C 355.929688 0 360.316406 1.816406 363.550781 5.050781 C 366.785156 8.289062 368.605469 12.675781 368.605469 17.25 L 368.605469 357.75 C 368.605469 362.324219 366.785156 366.710938 363.550781 369.949219 C 360.316406 373.183594 355.929688 375 351.355469 375 L 141.734375 375 C 137.160156 375 132.773438 373.183594 129.539062 369.949219 C 126.300781 366.710938 124.484375 362.324219 124.484375 357.75 L 124.484375 17.25 C 124.484375 12.675781 126.300781 8.289062 129.539062 5.050781 C 132.773438 1.816406 137.160156 0 141.734375 0 " clip-rule="nonzero"/></clipPath><clipPath id="3adab360a1"><path d="M 23.273438 20.992188 L 102.019531 20.992188 L 102.019531 99.734375 L 23.273438 99.734375 Z M 23.273438 20.992188 " clip-rule="nonzero"/></clipPath><clipPath id="0500f2d0fa"><path d="M 62.644531 20.992188 C 40.902344 20.992188 23.273438 38.617188 23.273438 60.363281 C 23.273438 82.109375 40.902344 99.734375 62.644531 99.734375 C 84.390625 99.734375 102.019531 82.109375 102.019531 60.363281 C 102.019531 38.617188 84.390625 20.992188 62.644531 20.992188 " clip-rule="nonzero"/></clipPath></defs><g clip-path="url(#d70918f2f0)"><g clip-path="url(#b2231cc93c)"><path fill="#045757" d="M 6.394531 0 L 118.894531 0 L 118.894531 374.414062 L 6.394531 374.414062 Z M 6.394531 0 " fill-opacity="1" fill-rule="nonzero"/></g></g><g clip-path="url(#c4a363f025)"><g clip-path="url(#c59a24c786)"><path fill="#222222" d="M 124.484375 0 L 368.820312 0 L 368.820312 374.414062 L 124.484375 374.414062 Z M 124.484375 0 " fill-opacity="1" fill-rule="nonzero"/></g></g><g clip-path="url(#3adab360a1)"><g clip-path="url(#0500f2d0fa)"><path fill="#ffffff" d="M 23.273438 20.992188 L 102.019531 20.992188 L 102.019531 99.734375 L 23.273438 99.734375 Z M 23.273438 20.992188 " fill-opacity="1" fill-rule="nonzero"/></g></g><path stroke-linecap="butt" transform="matrix(0.752137, 0, 0, 0.75, 18.877084, 117.435695)" fill="none" stroke-linejoin="miter" d="M 0.00242279 2.002406 L 120.669073 2.002406 " stroke="#ffffff" stroke-width="4" stroke-opacity="1" stroke-miterlimit="4"/><path stroke-linecap="butt" transform="matrix(0.752137, 0, 0, 0.75, 18.877084, 128.868376)" fill="none" stroke-linejoin="miter" d="M 0.00242279 1.998416 L 120.669073 1.998416 " stroke="#ffffff" stroke-width="4" stroke-opacity="1" stroke-miterlimit="4"/><path stroke-linecap="butt" transform="matrix(0.752137, 0, 0, 0.75, 18.877084, 139.08018)" fill="none" stroke-linejoin="miter" d="M 0.00242279 2.002468 L 120.669073 2.002468 " stroke="#ffffff" stroke-width="4" stroke-opacity="1" stroke-miterlimit="4"/><path stroke-linecap="butt" transform="matrix(0.752137, 0, 0, 0.75, 18.877084, 149.58018)" fill="none" stroke-linejoin="miter" d="M 0.00242279 2.002469 L 120.669073 2.002469 " stroke="#ffffff" stroke-width="4" stroke-opacity="1" stroke-miterlimit="4"/><path stroke-linecap="butt" transform="matrix(0.752137, 0, 0, 0.75, 18.877084, 161.012845)" fill="none" stroke-linejoin="miter" d="M 0.00242279 1.998498 L 120.669073 1.998498 " stroke="#ffffff" stroke-width="4" stroke-opacity="1" stroke-miterlimit="4"/><path stroke-linecap="butt" transform="matrix(0.752137, 0, 0, 0.75, 18.877084, 171.224653)" fill="none" stroke-linejoin="miter" d="M 0.00242279 2.002546 L 120.669073 2.002546 " stroke="#ffffff" stroke-width="4" stroke-opacity="1" stroke-miterlimit="4"/><path stroke-linecap="butt" transform="matrix(0.750853, 0, 0, 0.75, 148.078149, 31.124998)" fill="none" stroke-linejoin="miter" d="M -0.0000321983 8.500003 L 219.760392 8.500003 " stroke="#ffffff" stroke-width="17" stroke-opacity="1" stroke-miterlimit="4"/><path stroke-linecap="butt" transform="matrix(0.750853, 0.000000000000000097, -0.000000000000000097, 0.75, 148.078149, 58.863083)" fill="none" stroke-linejoin="miter" d="M -0.0000321983 2.000265 L 219.760392 2.000265 " stroke="#ffffff" stroke-width="4" stroke-opacity="1" stroke-miterlimit="4"/><path stroke-linecap="butt" transform="matrix(0.749939, 0.000000000000000056, -0.000000000000000056, 0.75, 148.078149, 68.251131)" fill="none" stroke-linejoin="miter" d="M -0.0000322376 1.998493 L 191.020813 1.998493 " stroke="#ffffff" stroke-width="4" stroke-opacity="1" stroke-miterlimit="4"/><path stroke-linecap="butt" transform="matrix(0.75034, 0, 0, 0.75, 148.078149, 78.462928)" fill="none" stroke-linejoin="miter" d="M -0.0000322203 2.002554 L 206.911434 2.002554 " stroke="#ffffff" stroke-width="4" stroke-opacity="1" stroke-miterlimit="4"/><path stroke-linecap="butt" transform="matrix(0.752137, 0, 0, 0.75, 148.645468, 88.485865)" fill="none" stroke-linejoin="miter" d="M -0.0012459 1.998013 L 120.670598 1.998013 " stroke="#ffffff" stroke-width="4" stroke-opacity="1" stroke-miterlimit="4"/><path stroke-linecap="butt" transform="matrix(0.749939, 0, 0, 0.75, 148.078149, 98.235243)" fill="none" stroke-linejoin="miter" d="M -0.0000322376 1.998843 L 191.020813 1.998843 " stroke="#ffffff" stroke-width="4" stroke-opacity="1" stroke-miterlimit="4"/><path stroke-linecap="butt" transform="matrix(0.752322, 0, 0, 0.75, 148.078149, 108.472428)" fill="none" stroke-linejoin="miter" d="M -0.0000321354 2.000304 L 161.515551 2.000304 " stroke="#ffffff" stroke-width="4" stroke-opacity="1" stroke-miterlimit="4"/></svg>