<svg xmlns="http://www.w3.org/2000/svg" xmlns:xlink="http://www.w3.org/1999/xlink" width="500" zoomAndPan="magnify" viewBox="0 0 375 374.999991" height="500" preserveAspectRatio="xMidYMid meet" version="1.0"><defs><clipPath id="6ae6459368"><path d="M 0 0 L 188 0 L 188 94.921875 L 0 94.921875 Z M 0 0 " clip-rule="nonzero"/></clipPath><clipPath id="0ff0a0d397"><path d="M 17.25 0 L 170.25 0 C 174.824219 0 179.210938 1.816406 182.449219 5.050781 C 185.683594 8.289062 187.5 12.675781 187.5 17.25 L 187.5 76.796875 C 187.5 81.371094 185.683594 85.757812 182.449219 88.992188 C 179.210938 92.230469 174.824219 94.046875 170.25 94.046875 L 17.25 94.046875 C 12.675781 94.046875 8.289062 92.230469 5.050781 88.992188 C 1.816406 85.757812 0 81.371094 0 76.796875 L 0 17.25 C 0 12.675781 1.816406 8.289062 5.050781 5.050781 C 8.289062 1.816406 12.675781 0 17.25 0 " clip-rule="nonzero"/></clipPath><clipPath id="e126ba627a"><path d="M 187.5 0 L 282 0 L 282 94.921875 L 187.5 94.921875 Z M 187.5 0 " clip-rule="nonzero"/></clipPath><clipPath id="48a4f96100"><path d="M 204.75 0 L 264.296875 0 C 268.871094 0 273.257812 1.816406 276.492188 5.050781 C 279.730469 8.289062 281.546875 12.675781 281.546875 17.25 L 281.546875 76.796875 C 281.546875 81.371094 279.730469 85.757812 276.492188 88.992188 C 273.257812 92.230469 268.871094 94.046875 264.296875 94.046875 L 204.75 94.046875 C 200.175781 94.046875 195.789062 92.230469 192.550781 88.992188 C 189.316406 85.757812 187.5 81.371094 187.5 76.796875 L 187.5 17.25 C 187.5 12.675781 189.316406 8.289062 192.550781 5.050781 C 195.789062 1.816406 200.175781 0 204.75 0 " clip-rule="nonzero"/></clipPath><clipPath id="494ee2695f"><path d="M 280.953125 0 L 375 0 L 375 188 L 280.953125 188 Z M 280.953125 0 " clip-rule="nonzero"/></clipPath><clipPath id="6fa0a8de5e"><path d="M 298.203125 0 L 357.75 0 C 362.324219 0 366.710938 1.816406 369.949219 5.050781 C 373.183594 8.289062 375 12.675781 375 17.25 L 375 170.25 C 375 174.824219 373.183594 179.210938 369.949219 182.449219 C 366.710938 185.683594 362.324219 187.5 357.75 187.5 L 298.203125 187.5 C 293.628906 187.5 289.242188 185.683594 286.007812 182.449219 C 282.769531 179.210938 280.953125 174.824219 280.953125 170.25 L 280.953125 17.25 C 280.953125 12.675781 282.769531 8.289062 286.007812 5.050781 C 289.242188 1.816406 293.628906 0 298.203125 0 " clip-rule="nonzero"/></clipPath><clipPath id="3e6d9a06e2"><path d="M 0 93.453125 L 94.921875 93.453125 L 94.921875 188 L 0 188 Z M 0 93.453125 " clip-rule="nonzero"/></clipPath><clipPath id="bd9b857314"><path d="M 17.25 93.453125 L 76.796875 93.453125 C 81.371094 93.453125 85.757812 95.269531 88.992188 98.507812 C 92.230469 101.742188 94.046875 106.128906 94.046875 110.703125 L 94.046875 170.25 C 94.046875 174.824219 92.230469 179.210938 88.992188 182.449219 C 85.757812 185.683594 81.371094 187.5 76.796875 187.5 L 17.25 187.5 C 12.675781 187.5 8.289062 185.683594 5.050781 182.449219 C 1.816406 179.210938 0 174.824219 0 170.25 L 0 110.703125 C 0 106.128906 1.816406 101.742188 5.050781 98.507812 C 8.289062 95.269531 12.675781 93.453125 17.25 93.453125 " clip-rule="nonzero"/></clipPath><clipPath id="f0da1fa0ff"><path d="M 94.046875 93.453125 L 281 93.453125 L 281 188 L 94.046875 188 Z M 94.046875 93.453125 " clip-rule="nonzero"/></clipPath><clipPath id="413c841017"><path d="M 111.296875 93.453125 L 263.703125 93.453125 C 268.277344 93.453125 272.667969 95.269531 275.902344 98.507812 C 279.136719 101.742188 280.953125 106.128906 280.953125 110.703125 L 280.953125 170.25 C 280.953125 174.824219 279.136719 179.210938 275.902344 182.449219 C 272.667969 185.683594 268.277344 187.5 263.703125 187.5 L 111.296875 187.5 C 106.722656 187.5 102.332031 185.683594 99.097656 182.449219 C 95.863281 179.210938 94.046875 174.824219 94.046875 170.25 L 94.046875 110.703125 C 94.046875 106.128906 95.863281 101.742188 99.097656 98.507812 C 102.332031 95.269531 106.722656 93.453125 111.296875 93.453125 " clip-rule="nonzero"/></clipPath></defs><g clip-path="url(#6ae6459368)"><g clip-path="url(#0ff0a0d397)"><path fill="#7541c8" d="M 0 0 L 188.085938 0 L 188.085938 94.921875 L 0 94.921875 Z M 0 0 " fill-opacity="1" fill-rule="nonzero"/></g></g><g clip-path="url(#e126ba627a)"><g clip-path="url(#48a4f96100)"><path fill="#48556a" d="M 187.5 0 L 282.421875 0 L 282.421875 94.921875 L 187.5 94.921875 Z M 187.5 0 " fill-opacity="1" fill-rule="nonzero"/></g></g><g clip-path="url(#494ee2695f)"><g clip-path="url(#6fa0a8de5e)"><path fill="#ffffff" d="M 280.953125 0 L 375.875 0 L 375.875 188.085938 L 280.953125 188.085938 Z M 280.953125 0 " fill-opacity="1" fill-rule="nonzero"/></g></g><g clip-path="url(#3e6d9a06e2)"><g clip-path="url(#bd9b857314)"><path fill="#ffffff" d="M 0 93.453125 L 94.921875 93.453125 L 94.921875 188.375 L 0 188.375 Z M 0 93.453125 " fill-opacity="1" fill-rule="nonzero"/></g></g><g clip-path="url(#f0da1fa0ff)"><g clip-path="url(#413c841017)"><path fill="#19212e" d="M 94.046875 93.453125 L 280.375 93.453125 L 280.375 188.375 L 94.046875 188.375 Z M 94.046875 93.453125 " fill-opacity="1" fill-rule="nonzero"/></g></g></svg>