<svg xmlns="http://www.w3.org/2000/svg" xmlns:xlink="http://www.w3.org/1999/xlink" width="500" zoomAndPan="magnify" viewBox="0 0 375 374.999991" height="500" preserveAspectRatio="xMidYMid meet" version="1.0"><defs><clipPath id="09610c62ab"><path d="M 37.5 0 L 338 0 L 338 375 L 37.5 375 Z M 37.5 0 " clip-rule="nonzero"/></clipPath><clipPath id="7642b6cee0"><path d="M 54.75 0 L 320.25 0 C 324.824219 0 329.210938 1.816406 332.449219 5.050781 C 335.683594 8.289062 337.5 12.675781 337.5 17.25 L 337.5 357.75 C 337.5 362.324219 335.683594 366.710938 332.449219 369.949219 C 329.210938 373.183594 324.824219 375 320.25 375 L 54.75 375 C 50.175781 375 45.789062 373.183594 42.550781 369.949219 C 39.316406 366.710938 37.5 362.324219 37.5 357.75 L 37.5 17.25 C 37.5 12.675781 39.316406 8.289062 42.550781 5.050781 C 45.789062 1.816406 50.175781 0 54.75 0 " clip-rule="nonzero"/></clipPath><clipPath id="512149cc3b"><path d="M 94.277344 30.472656 L 280.722656 30.472656 L 280.722656 216.917969 L 94.277344 216.917969 Z M 94.277344 30.472656 " clip-rule="nonzero"/></clipPath><clipPath id="777068cc46"><path d="M 111.527344 30.472656 L 263.472656 30.472656 C 273 30.472656 280.722656 38.195312 280.722656 47.722656 L 280.722656 199.667969 C 280.722656 209.195312 273 216.917969 263.472656 216.917969 L 111.527344 216.917969 C 102 216.917969 94.277344 209.195312 94.277344 199.667969 L 94.277344 47.722656 C 94.277344 38.195312 102 30.472656 111.527344 30.472656 " clip-rule="nonzero"/></clipPath><clipPath id="910ad31453"><path d="M 115 44 L 260 44 L 260 190 L 115 190 Z M 115 44 " clip-rule="nonzero"/></clipPath><clipPath id="89f1b9938d"><path d="M 107.949219 117.050781 L 187.5 37.5 L 267.050781 117.050781 L 187.5 196.597656 Z M 107.949219 117.050781 " clip-rule="nonzero"/></clipPath><clipPath id="1a2d745e60"><path d="M 120.148438 104.851562 L 175.300781 49.699219 C 178.539062 46.460938 182.925781 44.644531 187.5 44.644531 C 192.074219 44.644531 196.460938 46.460938 199.699219 49.699219 L 254.851562 104.851562 C 258.085938 108.085938 259.90625 112.472656 259.90625 117.050781 C 259.90625 121.625 258.085938 126.011719 254.851562 129.246094 L 199.699219 184.402344 C 196.460938 187.636719 192.074219 189.453125 187.5 189.453125 C 182.925781 189.453125 178.539062 187.636719 175.300781 184.402344 L 120.148438 129.246094 C 116.914062 126.011719 115.09375 121.625 115.09375 117.050781 C 115.09375 112.472656 116.914062 108.085938 120.148438 104.851562 " clip-rule="nonzero"/></clipPath></defs><g clip-path="url(#09610c62ab)"><g clip-path="url(#7642b6cee0)"><path fill="#14253d" d="M 37.5 0 L 338.085938 0 L 338.085938 374.414062 L 37.5 374.414062 Z M 37.5 0 " fill-opacity="1" fill-rule="nonzero"/></g></g><g clip-path="url(#512149cc3b)"><g clip-path="url(#777068cc46)"><path fill="#004b84" d="M 94.277344 30.472656 L 280.722656 30.472656 L 280.722656 216.917969 L 94.277344 216.917969 Z M 94.277344 30.472656 " fill-opacity="1" fill-rule="nonzero"/></g></g><g clip-path="url(#910ad31453)"><g clip-path="url(#89f1b9938d)"><g clip-path="url(#1a2d745e60)"><path fill="#e84d81" d="M 107.949219 117.050781 L 187.5 37.5 L 267.050781 117.050781 L 187.5 196.597656 Z M 107.949219 117.050781 " fill-opacity="1" fill-rule="nonzero"/></g></g></g><path stroke-linecap="butt" transform="matrix(0.75, 0, 0, 0.75, 80.161209, 236.491609)" fill="none" stroke-linejoin="miter" d="M -0.00140345 11.000772 L 159.998607 11.000772 " stroke="#ffffff" stroke-width="22" stroke-opacity="1" stroke-miterlimit="4"/><path stroke-linecap="butt" transform="matrix(0.749512, 0, 0, 0.75, 80.161209, 275.681787)" fill="none" stroke-linejoin="miter" d="M -0.00140436 2.002408 L 240.160075 2.002408 " stroke="#737373" stroke-width="4" stroke-opacity="1" stroke-miterlimit="4"/><path stroke-linecap="butt" transform="matrix(0.75, 0, 0, 0.75, 80.161209, 301.443086)" fill="none" stroke-linejoin="miter" d="M -0.00140345 1.997761 L 159.998607 1.997761 " stroke="#06ede8" stroke-width="4" stroke-opacity="1" stroke-miterlimit="4"/></svg>