<svg xmlns="http://www.w3.org/2000/svg" xmlns:xlink="http://www.w3.org/1999/xlink" width="500" zoomAndPan="magnify" viewBox="0 0 375 374.999991" height="500" preserveAspectRatio="xMidYMid meet" version="1.0"><defs><clipPath id="c54e8f3ff5"><path d="M 17.25 0 L 357.75 0 C 362.324219 0 366.710938 1.816406 369.949219 5.050781 C 373.183594 8.289062 375 12.675781 375 17.25 L 375 357.75 C 375 362.324219 373.183594 366.710938 369.949219 369.949219 C 366.710938 373.183594 362.324219 375 357.75 375 L 17.25 375 C 12.675781 375 8.289062 373.183594 5.050781 369.949219 C 1.816406 366.710938 0 362.324219 0 357.75 L 0 17.25 C 0 12.675781 1.816406 8.289062 5.050781 5.050781 C 8.289062 1.816406 12.675781 0 17.25 0 " clip-rule="nonzero"/></clipPath><clipPath id="8fbea9247c"><path d="M 0 0 L 375 0 L 375 175.78125 L 0 175.78125 Z M 0 0 " clip-rule="nonzero"/></clipPath><clipPath id="ce37af7b4e"><path d="M 17.25 0 L 357.75 0 C 362.324219 0 366.710938 1.816406 369.949219 5.050781 C 373.183594 8.289062 375 12.675781 375 17.25 L 375 158.101562 C 375 162.679688 373.183594 167.066406 369.949219 170.300781 C 366.710938 173.535156 362.324219 175.351562 357.75 175.351562 L 17.25 175.351562 C 12.675781 175.351562 8.289062 173.535156 5.050781 170.300781 C 1.816406 167.066406 0 162.679688 0 158.101562 L 0 17.25 C 0 12.675781 1.816406 8.289062 5.050781 5.050781 C 8.289062 1.816406 12.675781 0 17.25 0 " clip-rule="nonzero"/></clipPath><clipPath id="5bdddb85a2"><path d="M 129.777344 101.019531 L 242.277344 101.019531 L 242.277344 213.519531 L 129.777344 213.519531 Z M 129.777344 101.019531 " clip-rule="nonzero"/></clipPath><clipPath id="89546aada4"><path d="M 186.027344 101.019531 C 154.960938 101.019531 129.777344 126.203125 129.777344 157.269531 C 129.777344 188.332031 154.960938 213.519531 186.027344 213.519531 C 217.089844 213.519531 242.277344 188.332031 242.277344 157.269531 C 242.277344 126.203125 217.089844 101.019531 186.027344 101.019531 " clip-rule="nonzero"/></clipPath><clipPath id="1eba81aedb"><path d="M 37.5 301.382812 L 90.75 301.382812 L 90.75 354.632812 L 37.5 354.632812 Z M 37.5 301.382812 " clip-rule="nonzero"/></clipPath><clipPath id="9e0d317c37"><path d="M 162.101562 301.382812 L 215.351562 301.382812 L 215.351562 354.632812 L 162.101562 354.632812 Z M 162.101562 301.382812 " clip-rule="nonzero"/></clipPath><clipPath id="9dc77a8cb2"><path d="M 284.0625 301.382812 L 337.3125 301.382812 L 337.3125 354.632812 L 284.0625 354.632812 Z M 284.0625 301.382812 " clip-rule="nonzero"/></clipPath></defs><g clip-path="url(#c54e8f3ff5)"><path fill="#ffffff" d="M 0 0 L 374.414062 0 L 374.414062 374.414062 L 0 374.414062 Z M 0 0 " fill-opacity="1" fill-rule="nonzero"/><path fill="#ffffff" d="M 0 0 L 374.414062 0 L 374.414062 374.414062 L 0 374.414062 Z M 0 0 " fill-opacity="1" fill-rule="nonzero"/></g><g clip-path="url(#8fbea9247c)"><g clip-path="url(#ce37af7b4e)"><path fill="#41cbd3" d="M 0 0 L 374.414062 0 L 374.414062 175.78125 L 0 175.78125 Z M 0 0 " fill-opacity="1" fill-rule="nonzero"/></g></g><g clip-path="url(#5bdddb85a2)"><g clip-path="url(#89546aada4)"><path fill="#686d6b" d="M 129.777344 101.019531 L 242.277344 101.019531 L 242.277344 213.519531 L 129.777344 213.519531 Z M 129.777344 101.019531 " fill-opacity="1" fill-rule="nonzero"/></g></g><path stroke-linecap="butt" transform="matrix(0.75, 0, 0, 0.75, 128.82146, 226.620146)" fill="none" stroke-linejoin="miter" d="M -0.00153005 5.001264 L 159.99848 5.001264 " stroke="#000000" stroke-width="10" stroke-opacity="1" stroke-miterlimit="4"/><g clip-path="url(#1eba81aedb)"><path fill="#000000" d="M 64.125 354.632812 C 49.414062 354.632812 37.5 342.636719 37.5 328.007812 C 37.5 313.382812 49.414062 301.382812 64.125 301.382812 C 78.835938 301.382812 90.75 313.300781 90.75 328.007812 C 90.75 342.71875 78.753906 354.632812 64.125 354.632812 Z M 64.125 303.027344 C 50.320312 303.027344 39.144531 314.203125 39.144531 328.007812 C 39.144531 341.8125 50.320312 352.988281 64.125 352.988281 C 77.929688 352.988281 89.105469 341.8125 89.105469 328.007812 C 89.105469 314.203125 77.847656 303.027344 64.125 303.027344 Z M 64.125 303.027344 " fill-opacity="1" fill-rule="nonzero"/></g><g clip-path="url(#9e0d317c37)"><path fill="#000000" d="M 188.726562 354.632812 C 174.019531 354.632812 162.101562 342.636719 162.101562 328.007812 C 162.101562 313.382812 174.019531 301.382812 188.726562 301.382812 C 203.4375 301.382812 215.351562 313.300781 215.351562 328.007812 C 215.351562 342.71875 203.355469 354.632812 188.726562 354.632812 Z M 188.726562 303.027344 C 174.921875 303.027344 163.746094 314.203125 163.746094 328.007812 C 163.746094 341.8125 174.921875 352.988281 188.726562 352.988281 C 202.535156 352.988281 213.710938 341.8125 213.710938 328.007812 C 213.710938 314.203125 202.453125 303.027344 188.726562 303.027344 Z M 188.726562 303.027344 " fill-opacity="1" fill-rule="nonzero"/></g><g clip-path="url(#9dc77a8cb2)"><path fill="#000000" d="M 310.6875 354.632812 C 295.980469 354.632812 284.0625 342.636719 284.0625 328.007812 C 284.0625 313.382812 295.980469 301.382812 310.6875 301.382812 C 325.398438 301.382812 337.3125 313.300781 337.3125 328.007812 C 337.3125 342.71875 325.316406 354.632812 310.6875 354.632812 Z M 310.6875 303.027344 C 296.882812 303.027344 285.707031 314.203125 285.707031 328.007812 C 285.707031 341.8125 296.882812 352.988281 310.6875 352.988281 C 324.496094 352.988281 335.671875 341.8125 335.671875 328.007812 C 335.671875 314.203125 324.410156 303.027344 310.6875 303.027344 Z M 310.6875 303.027344 " fill-opacity="1" fill-rule="nonzero"/></g></svg>