<svg xmlns="http://www.w3.org/2000/svg" xmlns:xlink="http://www.w3.org/1999/xlink" width="500" zoomAndPan="magnify" viewBox="0 0 375 374.999991" height="500" preserveAspectRatio="xMidYMid meet" version="1.0"><defs><clipPath id="c19fcddcd7"><path d="M 17.25 0 L 357.75 0 C 362.324219 0 366.710938 1.816406 369.949219 5.050781 C 373.183594 8.289062 375 12.675781 375 17.25 L 375 357.75 C 375 362.324219 373.183594 366.710938 369.949219 369.949219 C 366.710938 373.183594 362.324219 375 357.75 375 L 17.25 375 C 12.675781 375 8.289062 373.183594 5.050781 369.949219 C 1.816406 366.710938 0 362.324219 0 357.75 L 0 17.25 C 0 12.675781 1.816406 8.289062 5.050781 5.050781 C 8.289062 1.816406 12.675781 0 17.25 0 " clip-rule="nonzero"/></clipPath><clipPath id="22845b7e09"><path d="M 95.949219 44.8125 L 279 44.8125 L 279 228 L 95.949219 228 Z M 95.949219 44.8125 " clip-rule="nonzero"/></clipPath><clipPath id="ad53549816"><path d="M 113.199219 44.8125 L 261.800781 44.8125 C 266.378906 44.8125 270.765625 46.632812 274 49.867188 C 277.234375 53.101562 279.050781 57.488281 279.050781 62.0625 L 279.050781 210.667969 C 279.050781 215.242188 277.234375 219.632812 274 222.867188 C 270.765625 226.101562 266.378906 227.917969 261.800781 227.917969 L 113.199219 227.917969 C 108.621094 227.917969 104.234375 226.101562 101 222.867188 C 97.765625 219.632812 95.949219 215.242188 95.949219 210.667969 L 95.949219 62.0625 C 95.949219 57.488281 97.765625 53.101562 101 49.867188 C 104.234375 46.632812 108.621094 44.8125 113.199219 44.8125 " clip-rule="nonzero"/></clipPath></defs><g clip-path="url(#c19fcddcd7)"><path fill="#2b81f5" d="M 0 0 L 374.414062 0 L 374.414062 374.414062 L 0 374.414062 Z M 0 0 " fill-opacity="1" fill-rule="nonzero"/></g><g clip-path="url(#22845b7e09)"><g clip-path="url(#ad53549816)"><path fill="#ffffff" d="M 95.949219 44.8125 L 278.761719 44.8125 L 278.761719 227.625 L 95.949219 227.625 Z M 95.949219 44.8125 " fill-opacity="1" fill-rule="nonzero"/></g></g><path stroke-linecap="butt" transform="matrix(0.750881, 0.00345261, -0.00344852, 0.749992, 83.754412, 248.042065)" fill="none" stroke-linejoin="miter" d="M -0.00188679 2.001236 L 276.678119 1.998379 " stroke="#ffffff" stroke-width="4" stroke-opacity="1" stroke-miterlimit="4"/><path stroke-linecap="butt" transform="matrix(0.748819, 0, 0, 0.75, 105.620299, 265.766788)" fill="none" stroke-linejoin="miter" d="M 0.00106112 1.998449 L 218.344822 1.998449 " stroke="#ffffff" stroke-width="4" stroke-opacity="1" stroke-miterlimit="4"/><path stroke-linecap="butt" transform="matrix(0.75, 0, 0, 0.75, 127.499996, 283.895108)" fill="none" stroke-linejoin="miter" d="M 0.00000516333 1.999231 L 160.000016 1.999231 " stroke="#ffffff" stroke-width="4" stroke-opacity="1" stroke-miterlimit="4"/></svg>