<svg xmlns="http://www.w3.org/2000/svg" xmlns:xlink="http://www.w3.org/1999/xlink" width="500" zoomAndPan="magnify" viewBox="0 0 375 374.999991" height="500" preserveAspectRatio="xMidYMid meet" version="1.0"><defs><clipPath id="4c03af092d"><path d="M 0 64.105469 L 375 64.105469 L 375 327 L 0 327 Z M 0 64.105469 " clip-rule="nonzero"/></clipPath><clipPath id="4e46b4d3d8"><path d="M 16.117188 64.105469 L 357.75 64.105469 C 362.324219 64.105469 366.710938 65.925781 369.949219 69.160156 C 373.183594 72.394531 375 76.78125 375 81.355469 L 375 309.128906 C 375 313.707031 373.183594 318.09375 369.949219 321.328125 C 366.710938 324.5625 362.324219 326.378906 357.75 326.378906 L 16.117188 326.378906 C 11.539062 326.378906 7.152344 324.5625 3.917969 321.328125 C 0.683594 318.09375 -1.132812 313.707031 -1.132812 309.128906 L -1.132812 81.355469 C -1.132812 76.78125 0.683594 72.394531 3.917969 69.160156 C 7.152344 65.925781 11.539062 64.105469 16.117188 64.105469 " clip-rule="nonzero"/></clipPath><clipPath id="bbe85dff21"><path d="M 0 226.445312 L 104 226.445312 L 104 267 L 0 267 Z M 0 226.445312 " clip-rule="nonzero"/></clipPath><clipPath id="b9a9f05362"><path d="M 17.25 226.445312 L 87.308594 226.445312 C 91.882812 226.445312 96.269531 228.265625 99.503906 231.5 C 102.738281 234.734375 104.558594 239.121094 104.558594 243.695312 L 104.558594 250.214844 C 104.558594 254.789062 102.738281 259.175781 99.503906 262.410156 C 96.269531 265.648438 91.882812 267.464844 87.308594 267.464844 L 17.25 267.464844 C 12.675781 267.464844 8.289062 265.648438 5.050781 262.410156 C 1.816406 259.175781 0 254.789062 0 250.214844 L 0 243.695312 C 0 239.121094 1.816406 234.734375 5.050781 231.5 C 8.289062 228.265625 12.675781 226.445312 17.25 226.445312 " clip-rule="nonzero"/></clipPath><clipPath id="8a616e767c"><path d="M 135.222656 246.957031 L 239 246.957031 L 239 288 L 135.222656 288 Z M 135.222656 246.957031 " clip-rule="nonzero"/></clipPath><clipPath id="bb82c6d523"><path d="M 152.472656 246.957031 L 222.527344 246.957031 C 227.105469 246.957031 231.492188 248.773438 234.726562 252.007812 C 237.960938 255.242188 239.777344 259.628906 239.777344 264.207031 L 239.777344 270.722656 C 239.777344 275.296875 237.960938 279.683594 234.726562 282.921875 C 231.492188 286.15625 227.105469 287.972656 222.527344 287.972656 L 152.472656 287.972656 C 147.894531 287.972656 143.507812 286.15625 140.273438 282.921875 C 137.039062 279.683594 135.222656 275.296875 135.222656 270.722656 L 135.222656 264.207031 C 135.222656 259.628906 137.039062 255.242188 140.273438 252.007812 C 143.507812 248.773438 147.894531 246.957031 152.472656 246.957031 " clip-rule="nonzero"/></clipPath><clipPath id="a00fe0604d"><path d="M 270.441406 267.464844 L 375 267.464844 L 375 308 L 270.441406 308 Z M 270.441406 267.464844 " clip-rule="nonzero"/></clipPath><clipPath id="791a0577e1"><path d="M 287.691406 267.464844 L 357.75 267.464844 C 362.324219 267.464844 366.710938 269.28125 369.949219 272.515625 C 373.183594 275.75 375 280.140625 375 284.714844 L 375 291.230469 C 375 295.804688 373.183594 300.195312 369.949219 303.429688 C 366.710938 306.664062 362.324219 308.480469 357.75 308.480469 L 287.691406 308.480469 C 283.117188 308.480469 278.730469 306.664062 275.496094 303.429688 C 272.261719 300.195312 270.441406 295.804688 270.441406 291.230469 L 270.441406 284.714844 C 270.441406 280.140625 272.261719 275.75 275.496094 272.515625 C 278.730469 269.28125 283.117188 267.464844 287.691406 267.464844 " clip-rule="nonzero"/></clipPath><clipPath id="068f264a52"><path d="M 242.53125 173.230469 L 364 173.230469 L 364 188 L 242.53125 188 Z M 242.53125 173.230469 " clip-rule="nonzero"/></clipPath><clipPath id="9ccd0bd181"><path d="M 249.664062 173.230469 L 357.539062 173.230469 C 361.480469 173.230469 364.675781 176.425781 364.675781 180.367188 C 364.675781 184.304688 361.480469 187.5 357.539062 187.5 L 249.664062 187.5 C 245.722656 187.5 242.53125 184.304688 242.53125 180.367188 C 242.53125 176.425781 245.722656 173.230469 249.664062 173.230469 " clip-rule="nonzero"/></clipPath><clipPath id="b36e165ae0"><path d="M 197.796875 147.789062 L 320 147.789062 L 320 162 L 197.796875 162 Z M 197.796875 147.789062 " clip-rule="nonzero"/></clipPath><clipPath id="35ca68a310"><path d="M 204.933594 147.789062 L 312.808594 147.789062 C 316.75 147.789062 319.941406 150.984375 319.941406 154.921875 C 319.941406 158.863281 316.75 162.058594 312.808594 162.058594 L 204.933594 162.058594 C 200.992188 162.058594 197.796875 158.863281 197.796875 154.921875 C 197.796875 150.984375 200.992188 147.789062 204.933594 147.789062 " clip-rule="nonzero"/></clipPath><clipPath id="11354663dc"><path d="M 164.894531 122.269531 L 287 122.269531 L 287 137 L 164.894531 137 Z M 164.894531 122.269531 " clip-rule="nonzero"/></clipPath><clipPath id="d6ce0f256f"><path d="M 172.027344 122.269531 L 279.902344 122.269531 C 283.84375 122.269531 287.039062 125.464844 287.039062 129.40625 C 287.039062 133.34375 283.84375 136.539062 279.902344 136.539062 L 172.027344 136.539062 C 168.085938 136.539062 164.894531 133.34375 164.894531 129.40625 C 164.894531 125.464844 168.085938 122.269531 172.027344 122.269531 " clip-rule="nonzero"/></clipPath></defs><g clip-path="url(#4c03af092d)"><g clip-path="url(#4e46b4d3d8)"><path fill="#ffffff" d="M -1.132812 64.105469 L 375.039062 64.105469 L 375.039062 326.019531 L -1.132812 326.019531 Z M -1.132812 64.105469 " fill-opacity="1" fill-rule="nonzero"/></g></g><g clip-path="url(#bbe85dff21)"><g clip-path="url(#b9a9f05362)"><path fill="#502050" d="M 0 226.445312 L 103.710938 226.445312 L 103.710938 266.875 L 0 266.875 Z M 0 226.445312 " fill-opacity="1" fill-rule="nonzero"/></g></g><g clip-path="url(#8a616e767c)"><g clip-path="url(#bb82c6d523)"><path fill="#502050" d="M 135.222656 246.957031 L 238.933594 246.957031 L 238.933594 287.386719 L 135.222656 287.386719 Z M 135.222656 246.957031 " fill-opacity="1" fill-rule="nonzero"/></g></g><g clip-path="url(#a00fe0604d)"><g clip-path="url(#791a0577e1)"><path fill="#502050" d="M 270.441406 267.464844 L 374.152344 267.464844 L 374.152344 307.894531 L 270.441406 307.894531 Z M 270.441406 267.464844 " fill-opacity="1" fill-rule="nonzero"/></g></g><g clip-path="url(#068f264a52)"><g clip-path="url(#9ccd0bd181)"><path fill="#f7f2f7" d="M 242.53125 173.230469 L 363.820312 173.230469 L 363.820312 187.292969 L 242.53125 187.292969 Z M 242.53125 173.230469 " fill-opacity="1" fill-rule="nonzero"/></g></g><g clip-path="url(#b36e165ae0)"><g clip-path="url(#35ca68a310)"><path fill="#f7f2f7" d="M 197.796875 147.789062 L 319.085938 147.789062 L 319.085938 161.851562 L 197.796875 161.851562 Z M 197.796875 147.789062 " fill-opacity="1" fill-rule="nonzero"/></g></g><g clip-path="url(#11354663dc)"><g clip-path="url(#d6ce0f256f)"><path fill="#f7f2f7" d="M 164.894531 122.269531 L 286.183594 122.269531 L 286.183594 136.332031 L 164.894531 136.332031 Z M 164.894531 122.269531 " fill-opacity="1" fill-rule="nonzero"/></g></g><path stroke-linecap="butt" transform="matrix(0.75, 0, 0, 0.75, 12.481093, 86.63691)" fill="none" stroke-linejoin="miter" d="M -0.000832387 5.999745 L 159.999178 5.999745 " stroke="#502050" stroke-width="12" stroke-opacity="1" stroke-miterlimit="4"/><path stroke-linecap="butt" transform="matrix(0.75, 0, 0, 0.75, 12.481093, 108.444778)" fill="none" stroke-linejoin="miter" d="M -0.000832387 2.000713 L 159.999178 2.000713 " stroke="#502050" stroke-width="4" stroke-opacity="1" stroke-miterlimit="4"/><path stroke-linecap="butt" transform="matrix(0.75, 0, 0, 0.75, 12.481093, 120.770418)" fill="none" stroke-linejoin="miter" d="M -0.000832387 1.998817 L 159.999178 1.998817 " stroke="#502050" stroke-width="4" stroke-opacity="1" stroke-miterlimit="4"/></svg>