<svg xmlns="http://www.w3.org/2000/svg" xmlns:xlink="http://www.w3.org/1999/xlink" width="500" zoomAndPan="magnify" viewBox="0 0 375 374.999991" height="500" preserveAspectRatio="xMidYMid meet" version="1.0"><defs><clipPath id="ee1376b7c3"><path d="M 0 37.5 L 188 37.5 L 188 302 L 0 302 Z M 0 37.5 " clip-rule="nonzero"/></clipPath><clipPath id="02d9b2c41b"><path d="M 17.25 37.5 L 170.25 37.5 C 174.824219 37.5 179.210938 39.316406 182.449219 42.550781 C 185.683594 45.789062 187.5 50.175781 187.5 54.75 L 187.5 284.570312 C 187.5 289.148438 185.683594 293.535156 182.449219 296.769531 C 179.210938 300.003906 174.824219 301.820312 170.25 301.820312 L 17.25 301.820312 C 12.675781 301.820312 8.289062 300.003906 5.050781 296.769531 C 1.816406 293.535156 0 289.148438 0 284.570312 L 0 54.75 C 0 50.175781 1.816406 45.789062 5.050781 42.550781 C 8.289062 39.316406 12.675781 37.5 17.25 37.5 " clip-rule="nonzero"/></clipPath><clipPath id="e8f82bf4ac"><path d="M 187.5 37.5 L 375 37.5 L 375 302 L 187.5 302 Z M 187.5 37.5 " clip-rule="nonzero"/></clipPath><clipPath id="939c5215d2"><path d="M 204.75 37.5 L 357.75 37.5 C 362.324219 37.5 366.710938 39.316406 369.949219 42.550781 C 373.183594 45.789062 375 50.175781 375 54.75 L 375 284.570312 C 375 289.148438 373.183594 293.535156 369.949219 296.769531 C 366.710938 300.003906 362.324219 301.820312 357.75 301.820312 L 204.75 301.820312 C 200.175781 301.820312 195.789062 300.003906 192.550781 296.769531 C 189.316406 293.535156 187.5 289.148438 187.5 284.570312 L 187.5 54.75 C 187.5 50.175781 189.316406 45.789062 192.550781 42.550781 C 195.789062 39.316406 200.175781 37.5 204.75 37.5 " clip-rule="nonzero"/></clipPath></defs><g clip-path="url(#ee1376b7c3)"><g clip-path="url(#02d9b2c41b)"><path fill="#1b1938" d="M 0 37.5 L 188.085938 37.5 L 188.085938 301.171875 L 0 301.171875 Z M 0 37.5 " fill-opacity="1" fill-rule="nonzero"/></g></g><g clip-path="url(#e8f82bf4ac)"><g clip-path="url(#939c5215d2)"><path fill="#53286e" d="M 187.5 37.5 L 375.585938 37.5 L 375.585938 301.171875 L 187.5 301.171875 Z M 187.5 37.5 " fill-opacity="1" fill-rule="nonzero"/></g></g><path stroke-linecap="butt" transform="matrix(0.751193, 0.000000000000000172, -0.000000000000000171, 0.75, 19.097363, 72.374995)" fill="none" stroke-linejoin="miter" d="M 0.000389839 3.500007 L 186.713923 3.500007 " stroke="#ffffff" stroke-width="7" stroke-opacity="1" stroke-miterlimit="4"/><path stroke-linecap="butt" transform="matrix(0.75193, 0.000000000000000077, -0.000000000000000076, 0.75, 19.097363, 91.053853)" fill="none" stroke-linejoin="miter" d="M 0.000389456 3.501113 L 139.64621 3.501113 " stroke="#ffffff" stroke-width="7" stroke-opacity="1" stroke-miterlimit="4"/></svg>