<svg xmlns="http://www.w3.org/2000/svg" xmlns:xlink="http://www.w3.org/1999/xlink" width="500" zoomAndPan="magnify" viewBox="0 0 375 374.999991" height="500" preserveAspectRatio="xMidYMid meet" version="1.0"><defs><clipPath id="5bb3d39972"><path d="M 37.5 0 L 338 0 L 338 375 L 37.5 375 Z M 37.5 0 " clip-rule="nonzero"/></clipPath><clipPath id="ecd2d74dad"><path d="M 54.75 0 L 320.25 0 C 324.824219 0 329.210938 1.816406 332.449219 5.050781 C 335.683594 8.289062 337.5 12.675781 337.5 17.25 L 337.5 357.75 C 337.5 362.324219 335.683594 366.710938 332.449219 369.949219 C 329.210938 373.183594 324.824219 375 320.25 375 L 54.75 375 C 50.175781 375 45.789062 373.183594 42.550781 369.949219 C 39.316406 366.710938 37.5 362.324219 37.5 357.75 L 37.5 17.25 C 37.5 12.675781 39.316406 8.289062 42.550781 5.050781 C 45.789062 1.816406 50.175781 0 54.75 0 " clip-rule="nonzero"/></clipPath><clipPath id="72cad3e147"><path d="M 37.5 0 L 338 0 L 338 130 L 37.5 130 Z M 37.5 0 " clip-rule="nonzero"/></clipPath><clipPath id="c373ad33bf"><path d="M 54.75 0 L 320.25 0 C 324.824219 0 329.210938 1.816406 332.449219 5.050781 C 335.683594 8.289062 337.5 12.675781 337.5 17.25 L 337.5 112.335938 C 337.5 116.910156 335.683594 121.296875 332.449219 124.53125 C 329.210938 127.765625 324.824219 129.585938 320.25 129.585938 L 54.75 129.585938 C 50.175781 129.585938 45.789062 127.765625 42.550781 124.53125 C 39.316406 121.296875 37.5 116.910156 37.5 112.335938 L 37.5 17.25 C 37.5 12.675781 39.316406 8.289062 42.550781 5.050781 C 45.789062 1.816406 50.175781 0 54.75 0 " clip-rule="nonzero"/></clipPath><clipPath id="5def36e829"><path d="M 131.25 302.199219 L 243.75 302.199219 L 243.75 325 L 131.25 325 Z M 131.25 302.199219 " clip-rule="nonzero"/></clipPath><clipPath id="cf9bae4033"><path d="M 142.265625 302.199219 L 232.734375 302.199219 C 238.820312 302.199219 243.75 307.128906 243.75 313.210938 C 243.75 319.292969 238.820312 324.226562 232.734375 324.226562 L 142.265625 324.226562 C 136.179688 324.226562 131.25 319.292969 131.25 313.210938 C 131.25 307.128906 136.179688 302.199219 142.265625 302.199219 " clip-rule="nonzero"/></clipPath><clipPath id="65309da9ab"><path d="M 145.734375 27.957031 L 230 27.957031 L 230 129.910156 L 145.734375 129.910156 Z M 145.734375 27.957031 " clip-rule="nonzero"/></clipPath><clipPath id="3db5b56234"><path d="M 162.984375 27.957031 L 212.015625 27.957031 C 216.589844 27.957031 220.980469 29.777344 224.214844 33.011719 C 227.449219 36.246094 229.265625 40.632812 229.265625 45.207031 L 229.265625 112.335938 C 229.265625 116.910156 227.449219 121.296875 224.214844 124.53125 C 220.980469 127.765625 216.589844 129.585938 212.015625 129.585938 L 162.984375 129.585938 C 158.410156 129.585938 154.019531 127.765625 150.785156 124.53125 C 147.550781 121.296875 145.734375 116.910156 145.734375 112.335938 L 145.734375 45.207031 C 145.734375 40.632812 147.550781 36.246094 150.785156 33.011719 C 154.019531 29.777344 158.410156 27.957031 162.984375 27.957031 " clip-rule="nonzero"/></clipPath></defs><g clip-path="url(#5bb3d39972)"><g clip-path="url(#ecd2d74dad)"><path fill="#ffffff" d="M 37.5 0 L 338.085938 0 L 338.085938 374.414062 L 37.5 374.414062 Z M 37.5 0 " fill-opacity="1" fill-rule="nonzero"/></g></g><g clip-path="url(#72cad3e147)"><g clip-path="url(#c373ad33bf)"><path fill="#382ae1" d="M 37.5 0 L 338.085938 0 L 338.085938 130.078125 L 37.5 130.078125 Z M 37.5 0 " fill-opacity="1" fill-rule="nonzero"/></g></g><path stroke-linecap="butt" transform="matrix(0.75, 0, 0, 0.75, 127.499996, 148.036925)" fill="none" stroke-linejoin="miter" d="M 0.00000516333 5.497642 L 160.000016 5.497642 " stroke="#000000" stroke-width="11" stroke-opacity="1" stroke-miterlimit="4"/><g clip-path="url(#5def36e829)"><g clip-path="url(#cf9bae4033)"><path fill="#382ae1" d="M 131.25 302.199219 L 243.75 302.199219 L 243.75 325.050781 L 131.25 325.050781 Z M 131.25 302.199219 " fill-opacity="1" fill-rule="nonzero"/></g></g><g clip-path="url(#65309da9ab)"><g clip-path="url(#3db5b56234)"><path fill="#75ecca" d="M 145.734375 27.957031 L 230.109375 27.957031 L 230.109375 129.910156 L 145.734375 129.910156 Z M 145.734375 27.957031 " fill-opacity="1" fill-rule="nonzero"/></g></g></svg>